# xmcd
#
# Track frame offsets:
#	150
#	17581
#	32009
#	47267
#
# Disc length: 839 seconds
#
# Revision: 0
# Processed by: cddbd v1.5.2PL0 Copyright (c) Steve Scherf et al.
# Submitted via: audiograbber 1.83.01
#
DISCID=20034504
DTITLE=Old Crow Medicine Show - Brushy Mountain Conjugal Trailer EP
DYEAR=1900
DGENRE=Country
TTITLE0=01. Brushy Mountain Conjugal Trailer
TTITLE1=02. I Done Wrong Blues
TTITLE2=03. Mother Church
TTITLE3=04. The Warden (Live)
EXTD=
EXTT0=
EXTT1=
EXTT2=
EXTT3=
PLAYORDER=
